<mxfile host="app.diagrams.net" modified="2024-04-15T10:01:45.465Z" agent="Mozilla/5.0 (Windows NT 10.0; Win64; x64) AppleWebKit/537.36 (KHTML, like Gecko) Chrome/122.0.0.0 Safari/537.36 OPR/108.0.0.0" version="24.2.3" etag="_NbROse_d4Me8Mdyi95A" type="github">
  <diagram name="Strona-1" id="BhWGBGZTWCubjzSyXTAh">
    <mxGraphModel>
      <root>
        <mxCell id="0" />
        <mxCell id="1" parent="0" />
      </root>
    </mxGraphModel>
  </diagram>
</mxfile>
